<svg width="896" height="205" viewBox="0 0 896 205" fill="none" xmlns="http://www.w3.org/2000/svg">
<path d="M435.452 88.38C435.452 85.78 437.562 83.67 440.162 83.67C442.762 83.67 444.872 85.78 444.872 88.38V150.74C444.872 154.14 442.122 156.89 438.722 156.89H420.292C412.692 156.89 406.522 154.48 401.782 149.67C397.042 144.79 394.672 138.65 394.672 131.26C394.672 123.87 397.112 117.94 401.992 113.06C406.942 108.11 412.802 105.63 419.562 105.63C423.152 105.63 426.542 106.35 429.752 107.79C430.982 108.34 431.702 109.6 431.702 110.95C431.702 113.97 428.122 115.88 425.202 115.11C423.432 114.65 421.552 114.41 419.572 114.41C415.392 114.41 411.832 115.98 408.902 119.12C406.042 122.19 404.612 126.23 404.612 131.25C404.612 136.27 405.972 140.42 408.692 143.49C411.482 146.56 415.352 148.09 420.302 148.09H432.392C434.092 148.09 435.472 146.71 435.472 145.01V88.36L435.452 88.38Z" fill="#23476D"/>
<path d="M349.322 112.84C349.322 109.44 352.072 106.69 355.472 106.69H367.412C375.152 106.69 380.692 107.84 384.042 110.14C387.042 112.16 388.922 114.6 389.692 117.46C390.532 120.25 390.952 123.95 390.952 128.55V152.29C390.952 154.83 388.892 156.89 386.352 156.89C383.812 156.89 381.752 154.83 381.752 152.29V128.65C381.752 127.39 381.712 126.35 381.642 125.51C381.572 124.6 381.332 123.49 380.912 122.16C380.492 120.77 379.902 119.65 379.132 118.81C378.362 117.9 377.252 117.14 375.782 116.51C374.322 115.81 372.542 115.46 370.452 115.46H360.582C359.452 115.46 358.532 116.38 358.532 117.51V152.28C358.532 154.82 356.472 156.88 353.932 156.88C351.392 156.88 349.332 154.82 349.332 152.28V112.83L349.322 112.84Z" fill="#23476D"/>
<path d="M328.012 126.48C330.072 126.93 331.442 128.84 331.442 130.95C331.442 133.35 328.522 134.89 326.192 134.3C324.802 133.95 323.312 133.78 321.722 133.78C318.442 133.78 315.902 134.44 314.082 135.77C312.272 137.03 311.362 138.84 311.362 141.21C311.362 145.81 314.782 148.11 321.612 148.11H335.422V128.13C335.422 119.69 331.312 115.47 323.082 115.47H310.742C308.312 115.47 306.352 113.5 306.352 111.08C306.352 108.65 308.322 106.69 310.742 106.69H323.612C330.372 106.69 335.572 108.36 339.202 111.71C342.832 115.06 344.642 119.87 344.642 126.15V150.75C344.642 154.15 341.882 156.9 338.492 156.9H321.322C315.392 156.9 310.692 155.58 307.202 152.93C303.712 150.28 301.972 146.41 301.972 141.32C301.972 136.23 303.822 132.36 307.512 129.71C311.212 127.06 315.842 125.74 321.422 125.74C323.532 125.74 325.732 125.99 328.032 126.5L328.012 126.48Z" fill="#23476D"/>
<path d="M282.642 137.02V88.38C282.642 85.78 284.752 83.67 287.352 83.67C289.952 83.67 292.062 85.78 292.062 88.38V137.02C292.062 139.53 292.342 141.59 292.902 143.19C293.532 144.72 294.472 145.84 295.722 146.54C296.982 147.17 298.202 147.59 299.382 147.8C299.492 147.82 299.592 147.84 299.712 147.85C302.112 148.21 304.092 150.08 304.092 152.5C304.092 154.93 302.122 156.92 299.702 156.72C294.162 156.24 290.082 154.8 287.462 152.4C284.252 149.4 282.652 144.28 282.652 137.02H282.642Z" fill="#23476D"/>
<path d="M235.042 113.28C239.922 108.19 246.022 105.64 253.352 105.64C256.912 105.64 260.222 106.34 263.292 107.73C266.432 109.06 269.152 110.9 271.452 113.27C273.822 115.64 275.672 118.43 276.992 121.64C278.322 124.78 278.982 128.16 278.982 131.79C278.982 135.42 278.322 138.83 276.992 142.04C275.732 145.18 273.962 147.93 271.662 150.3C269.362 152.67 266.642 154.55 263.502 155.95C260.362 157.27 256.982 157.94 253.352 157.94C249.722 157.94 246.242 157.28 243.102 155.95C240.032 154.56 237.352 152.67 235.052 150.3C232.752 147.93 230.942 145.17 229.612 142.04C228.352 138.83 227.732 135.42 227.732 131.79C227.732 124.4 230.172 118.23 235.052 113.28H235.042ZM253.342 114.43C248.462 114.43 244.522 116.03 241.522 119.24C238.592 122.45 237.132 126.63 237.132 131.79C237.132 136.95 238.592 141.13 241.522 144.34C244.522 147.55 248.462 149.15 253.342 149.15C258.222 149.15 262.232 147.55 265.162 144.34C268.092 141.06 269.552 136.88 269.552 131.79C269.552 126.7 268.082 122.55 265.162 119.34C262.232 116.06 258.292 114.42 253.342 114.42V114.43Z" fill="#23476D"/>
<path d="M181.982 156.9C179.262 156.9 177.062 154.7 177.062 151.98V109.3C177.062 100.86 179.122 94.31 183.232 89.63C187.412 84.96 193.342 82.62 201.012 82.62C208.682 82.62 214.682 84.5 218.792 88.27C222.972 92.04 225.072 97.34 225.072 104.17C225.072 108.56 224.022 112.15 221.932 114.94C219.842 117.73 216.282 119.93 211.262 121.53V121.95C216.492 123.97 219.982 126.87 221.722 130.63C223.532 134.33 224.442 140.46 224.442 149.04V151.97C224.442 154.69 222.242 156.89 219.522 156.89C216.812 156.89 214.602 154.69 214.602 151.97V143.5C214.602 138.2 213.102 134.09 210.102 131.16C207.102 128.16 202.782 126.66 197.132 126.66H196.082C193.542 126.66 191.482 124.6 191.482 122.06C191.482 119.52 193.542 117.46 196.082 117.46H197.442C204.132 117.46 208.772 116.1 211.352 113.38C213.932 110.66 215.222 107.42 215.222 103.65C215.222 100.09 213.932 97.23 211.352 95.07C208.842 92.91 205.492 91.83 201.312 91.83C196.502 91.83 192.872 93.19 190.432 95.91C188.062 98.63 186.872 103.09 186.872 109.3V151.98C186.872 154.7 184.672 156.9 181.952 156.9H181.982Z" fill="#23476D"/>
<path d="M748.132 112.84C748.132 109.44 750.882 106.69 754.282 106.69H766.222C773.962 106.69 779.502 107.84 782.852 110.14C785.852 112.16 787.732 114.6 788.502 117.46C789.342 120.25 789.762 123.95 789.762 128.55V152.29C789.762 154.83 787.702 156.89 785.162 156.89C782.622 156.89 780.562 154.83 780.562 152.29V128.65C780.562 127.39 780.522 126.35 780.452 125.51C780.382 124.6 780.142 123.49 779.722 122.16C779.302 120.77 778.712 119.65 777.942 118.81C777.172 117.9 776.062 117.14 774.592 116.51C773.132 115.81 771.352 115.46 769.262 115.46H760.412C758.712 115.46 757.332 116.84 757.332 118.54V152.28C757.332 154.82 755.272 156.88 752.732 156.88C750.192 156.88 748.132 154.82 748.132 152.28V112.83V112.84Z" fill="#23476D"/>
<path d="M727.842 126.72C729.292 127.08 730.252 128.42 730.252 129.91C730.252 132.74 726.762 134.6 723.982 134.08C722.892 133.88 721.742 133.78 720.522 133.78C717.242 133.78 714.702 134.44 712.882 135.77C711.072 137.03 710.162 138.84 710.162 141.21C710.162 145.81 713.582 148.11 720.412 148.11H734.222V128.13C734.222 119.69 730.112 115.47 721.882 115.47H709.542C707.112 115.47 705.152 113.5 705.152 111.08C705.152 108.65 707.122 106.69 709.542 106.69H722.412C729.172 106.69 734.372 108.36 738.002 111.71C741.632 115.06 743.442 119.87 743.442 126.15V150.75C743.442 154.15 740.682 156.9 737.292 156.9H720.122C714.192 156.9 709.492 155.58 706.002 152.93C702.512 150.28 700.772 146.41 700.772 141.32C700.772 136.23 702.622 132.36 706.312 129.71C710.012 127.06 714.642 125.74 720.222 125.74C722.642 125.74 725.182 126.07 727.852 126.73L727.842 126.72Z" fill="#23476D"/>
<path d="M631.822 112.84C631.822 109.44 634.572 106.69 637.972 106.69H677.952C682.902 106.69 686.842 107.63 689.772 109.51C692.772 111.39 694.722 113.83 695.632 116.83C696.612 119.83 697.092 123.42 697.092 127.6V152.29C697.092 154.83 695.032 156.89 692.492 156.89C689.952 156.89 687.892 154.83 687.892 152.29V127.6C687.892 122.16 686.252 118.57 682.972 116.83C681.302 115.92 677.912 115.47 672.822 115.47H671.612C669.912 115.47 668.532 116.85 668.532 118.55V152.29C668.532 154.83 666.472 156.89 663.932 156.89C661.392 156.89 659.332 154.83 659.332 152.29V118.55C659.332 116.85 657.952 115.47 656.252 115.47H644.102C642.402 115.47 641.022 116.85 641.022 118.55V152.29C641.022 154.83 638.962 156.89 636.422 156.89C633.882 156.89 631.822 154.83 631.822 152.29V112.84Z" fill="#23476D"/>
<path d="M589.082 83.67C591.622 83.67 593.682 85.73 593.682 88.27V106.68H602.572C610.312 106.68 615.862 107.83 619.202 110.13C622.202 112.15 624.082 114.59 624.852 117.45C625.692 120.24 626.112 123.94 626.112 128.54V152.28C626.112 154.82 624.052 156.88 621.512 156.88C618.972 156.88 616.912 154.82 616.912 152.28V128.64C616.912 127.38 616.872 126.34 616.812 125.5C616.742 124.59 616.502 123.48 616.082 122.15C615.662 120.76 615.072 119.64 614.302 118.8C613.532 117.89 612.422 117.13 610.952 116.5C609.492 115.8 607.712 115.45 605.622 115.45H593.692V152.27C593.692 154.81 591.632 156.87 589.092 156.87C586.552 156.87 584.492 154.81 584.492 152.27V88.25C584.492 85.71 586.552 83.65 589.092 83.65L589.082 83.67Z" fill="#23476D"/>
<path d="M536.872 113.28C541.752 108.19 547.852 105.64 555.182 105.64C558.742 105.64 562.052 106.34 565.122 107.73C568.262 109.06 570.982 110.9 573.282 113.27C575.652 115.64 577.502 118.43 578.822 121.64C580.152 124.78 580.812 128.16 580.812 131.79C580.812 135.42 580.152 138.83 578.822 142.04C577.562 145.18 575.792 147.93 573.492 150.3C571.192 152.67 568.472 154.55 565.332 155.95C562.192 157.27 558.812 157.94 555.182 157.94C551.552 157.94 548.072 157.28 544.932 155.95C541.862 154.56 539.182 152.67 536.882 150.3C534.582 147.93 532.772 145.17 531.442 142.04C530.182 138.83 529.562 135.42 529.562 131.79C529.562 124.4 532.002 118.23 536.882 113.28H536.872ZM555.182 114.43C550.302 114.43 546.362 116.03 543.362 119.24C540.432 122.45 538.972 126.63 538.972 131.79C538.972 136.95 540.432 141.13 543.362 144.34C546.362 147.55 550.302 149.15 555.182 149.15C560.062 149.15 564.072 147.55 567.002 144.34C569.932 141.06 571.392 136.88 571.392 131.79C571.392 126.7 569.922 122.55 567.002 119.34C564.072 116.06 560.132 114.42 555.182 114.42V114.43Z" fill="#23476D"/>
<path d="M505.322 156.9C502.782 156.9 500.722 154.84 500.722 152.3V128.35C500.722 120.33 502.222 114.79 505.222 111.72C506.682 110.19 508.462 109.04 510.552 108.27C512.642 107.5 514.452 107.05 515.992 106.91C517.592 106.77 519.762 106.7 522.472 106.7H527.282C529.712 106.7 531.672 108.67 531.672 111.09C531.672 113.52 529.702 115.48 527.282 115.48H520.592C519.202 115.48 518.112 115.51 517.352 115.58C516.582 115.65 515.682 115.89 514.632 116.31C513.582 116.73 512.682 117.39 511.912 118.3C510.592 119.97 509.922 123.32 509.922 128.34V152.29C509.922 154.83 507.862 156.89 505.322 156.89V156.9Z" fill="#23476D"/>
<path d="M477.262 102.5V116.52H492.112C494.652 116.52 496.712 118.58 496.712 121.12C496.712 123.66 494.652 125.72 492.112 125.72H477.262V151.98C477.262 154.7 475.062 156.9 472.342 156.9C469.622 156.9 467.422 154.7 467.422 151.98V101.14C467.422 95.98 469.062 91.83 472.342 88.69C474.572 86.6 477.082 85.24 479.872 84.61C482.662 83.98 486.082 83.67 490.122 83.67H497.632C500.172 83.67 502.232 85.73 502.232 88.27C502.232 90.81 500.172 92.87 497.632 92.87H488.762C481.092 92.87 477.252 96.08 477.252 102.49L477.262 102.5Z" fill="#23476D"/>
<path d="M114.382 28.93C114.662 28.96 114.972 28.88 115.312 28.79C114.982 28.84 114.672 28.9 114.382 28.93Z" fill="#24405E"/>
<path d="M134.212 94.29C133.792 91.73 129.962 88.34 127.172 89.61C126.992 89.69 126.822 89.79 126.662 89.91C124.502 91.44 124.332 94.82 124.462 98.19C124.532 100.03 124.702 101.87 124.672 103.39C124.672 103.84 124.642 104.25 124.602 104.63C123.482 114.18 112.802 118.23 104.262 116.05C104.252 116.05 104.232 116.04 104.212 116.04C99.6921 114.87 95.7821 111.96 94.2021 107.19C93.7321 105.76 93.5521 102.74 93.3921 101.03V100.99C93.3221 100.34 93.2721 99.88 93.2021 99.81C92.9421 99.51 91.4621 99.28 89.9921 99.25C88.5221 99.21 87.0321 99.37 86.7321 99.83C86.6221 99.99 86.5921 100.49 86.5721 101.16V101.19C86.5421 102.69 86.6221 105.01 86.3821 106.11C85.2421 111.45 80.9221 114.79 75.8321 116.03C75.8021 116.03 75.7821 116.04 75.7521 116.05C67.1921 118.07 56.5221 114.09 55.3121 103.5C55.3121 103.47 55.3121 103.44 55.3121 103.41C55.1621 102 55.3621 100.12 55.5221 98.2C55.8021 94.8 55.9521 91.26 53.8321 89.91C53.5521 89.73 53.2121 89.65 52.8121 89.63C51.3021 89.56 49.1721 90.52 48.2921 91.31C44.3921 94.85 45.4621 100.92 47.5921 105.11C49.5421 108.93 54.8021 112.31 56.0621 115.44C58.5921 121.81 58.7621 126.47 62.8421 133.12C70.7621 145.99 80.5021 151.83 90.0021 151.88C102.012 151.94 113.642 142.74 120.672 126.76C122.322 123.02 122.792 117.8 124.142 115.11C124.952 113.5 127.552 111.9 128.812 110.36C133.102 105.17 135.382 101.31 134.212 94.3V94.29Z" fill="#3485DF"/>
<path d="M80.4621 124.55C82.4821 124.55 85.6221 126.6 88.5221 126.85C89.7021 126.95 91.7721 126.9 92.9221 126.73C95.7221 126.32 101.352 122.85 103.062 126.33C107.422 135.2 84.1721 135.89 79.0921 131.96C76.6721 130.1 75.5321 128.1 77.0521 126.33C78.5721 124.55 80.4521 124.55 80.4521 124.55H80.4621Z" fill="#24405E"/>
<path d="M62.512 161.87V161.89C62.432 161.9 62.352 161.93 62.272 161.95L62.512 161.87Z" fill="#3485DF"/>
<path d="M88.9918 182.85C88.6318 182.85 88.2818 182.83 87.9318 182.81C87.5418 182.81 87.1618 182.76 86.7718 182.72C86.4418 182.7 86.1118 182.65 85.7818 182.6C85.4518 182.56 85.1218 182.51 84.7918 182.45C84.4618 182.4 84.1418 182.34 83.8218 182.27C83.7518 182.26 83.6918 182.25 83.6318 182.23C83.3618 182.18 83.0918 182.12 82.8318 182.05C82.6718 182.01 82.5118 181.97 82.3518 181.93C82.1918 181.89 82.0318 181.85 81.8618 181.8C81.5618 181.72 81.2518 181.62 80.9418 181.52C80.3318 181.33 79.7218 181.11 79.1318 180.88C78.9918 180.83 78.8518 180.77 78.7118 180.72C78.7118 180.71 78.7018 180.71 78.6918 180.7C78.3918 180.58 78.0818 180.45 77.7818 180.31C77.4718 180.17 77.1618 180.02 76.8518 179.86C76.6718 179.78 76.4918 179.68 76.3018 179.58C76.2718 179.57 76.2418 179.55 76.2018 179.53C76.0818 179.47 75.9518 179.4 75.8218 179.32C75.6018 179.2 75.3718 179.07 75.1518 178.94C74.9818 178.84 74.8118 178.73 74.6418 178.62C73.8618 178.14 73.1118 177.62 72.3918 177.06C72.1918 176.91 72.0018 176.76 71.8018 176.59C71.6518 176.47 71.4918 176.33 71.3318 176.19C71.3018 176.16 71.2718 176.14 71.2318 176.1C71.0018 175.91 70.7718 175.7 70.5418 175.49C70.3118 175.27 70.0718 175.03 69.8418 174.8C69.6718 174.64 69.5018 174.47 69.3518 174.29C69.3318 174.28 69.3218 174.27 69.3218 174.26C69.1918 174.13 69.0718 174 68.9418 173.87C68.7518 173.65 68.5518 173.42 68.3618 173.19C68.2618 173.07 68.1618 172.95 68.0618 172.83C67.1318 171.69 66.2718 170.44 65.5218 169.11C65.4818 169.04 65.4418 168.98 65.4118 168.91C65.2518 168.64 65.1018 168.37 64.9618 168.08C64.9118 167.98 64.8518 167.88 64.8018 167.77C64.7518 167.67 64.7018 167.56 64.6518 167.46C64.5318 167.2 64.4018 166.95 64.2918 166.7C64.1318 166.35 63.9818 165.99 63.8418 165.63C68.5318 176.66 78.6818 182.43 88.9918 182.85Z" fill="#3485DF"/>
<path d="M117.462 161.89C117.462 161.89 117.452 161.94 117.442 161.95C117.342 162.31 117.242 162.65 117.132 163H117.122C117.022 163.32 116.922 163.62 116.802 163.92C116.772 164.03 116.732 164.13 116.692 164.24C116.652 164.35 116.612 164.45 116.572 164.55C116.502 164.75 116.432 164.94 116.342 165.13C116.742 164.09 117.092 163.01 117.402 161.87C117.422 161.87 117.442 161.89 117.462 161.89Z" fill="#3485DF"/>
<path d="M111.532 152.99V153.05C111.752 165.33 102.792 176.27 89.982 176.05C88.322 176.03 86.592 175.81 84.812 175.38C73.902 172.77 68.332 162.83 68.442 152.69C68.442 152.66 68.442 152.63 68.442 152.6C68.442 151.85 68.492 151.09 68.562 150.34C68.572 150.35 68.592 150.37 68.612 150.38C68.842 150.57 69.072 150.77 69.302 150.96C75.412 156.01 82.682 158.68 89.972 158.76C97.162 158.84 104.372 156.39 110.502 151.23C110.592 151.16 110.622 151.07 110.652 150.96C110.742 150.61 110.642 150.17 111.332 150.34C111.332 150.35 111.332 150.37 111.332 150.38C111.442 151.25 111.502 152.12 111.512 152.98L111.532 152.99Z" fill="#3485DF"/>
<path d="M97.1118 22.29C97.1118 22.29 97.1318 22.31 97.1418 22.32C97.1418 22.32 97.1218 22.3 97.1118 22.29Z" fill="#24405E"/>
<path d="M57.492 82.97C57.552 81.19 57.862 79.41 58.382 77.69C59.782 72.56 62.682 68.41 66.572 65.27C66.582 65.26 66.602 65.24 66.622 65.23C69.262 62.96 72.352 61.21 75.672 60.18C76.482 59.93 77.302 59.7 78.132 59.5C78.152 59.5 78.172 59.49 78.192 59.48C81.902 58.46 85.902 57.95 90.002 57.97C94.102 57.94 98.092 58.45 101.802 59.48C101.822 59.48 101.842 59.5 101.862 59.5C102.682 59.71 103.502 59.94 104.322 60.18C107.642 61.21 110.722 62.96 113.362 65.23C113.382 65.24 113.392 65.26 113.412 65.27C117.292 68.4 120.182 72.54 121.592 77.65C122.122 79.39 122.432 81.18 122.482 82.97C122.632 85.15 122.552 87.48 122.192 89.94C121.642 89.7 121.232 89.31 120.792 88.92C118.732 87.96 116.112 87.35 113.352 87.02H113.332C109.292 86.73 104.542 86.77 102.032 86.97C101.642 87.02 101.272 87.06 100.912 87.1C100.892 87.1 100.882 87.1 100.862 87.1C95.872 87.99 93.932 92.69 93.452 92.81C93.022 92.91 91.602 92.95 90.262 92.93H89.972C88.552 92.95 86.992 92.91 86.532 92.81C86.042 92.7 84.112 88.01 79.152 87.11C79.122 87.11 79.102 87.11 79.062 87.09C78.702 87.05 78.322 87 77.932 86.96C75.422 86.76 70.672 86.72 66.652 87.01H66.642C63.882 87.34 61.262 87.94 59.202 88.91C58.762 89.3 58.352 89.69 57.802 89.93C57.452 87.46 57.362 85.14 57.512 82.95L57.492 82.97ZM110.902 109.84C110.902 109.84 110.872 109.86 110.852 109.86C106.142 110.76 100.752 108.4 100.032 102.82C100.002 102.58 99.972 102.24 99.942 101.84C99.942 101.88 99.952 101.93 99.962 101.97C99.962 101.93 99.962 101.88 99.952 101.84V101.81C99.952 101.81 99.942 101.73 99.932 101.68C99.932 101.73 99.932 101.77 99.932 101.82C99.732 100.18 99.692 98.31 99.962 96.77C100.082 95.53 100.312 94.5 100.702 94.12C100.902 93.92 101.442 93.76 102.192 93.64C102.262 93.63 102.332 93.61 102.402 93.6C104.402 93.2 108.562 93.09 112.012 93.39H112.092C114.392 93.55 116.272 93.84 116.812 94.29C116.862 94.34 116.922 94.38 116.972 94.43C117.172 94.55 117.322 94.67 117.422 94.8C117.462 94.85 117.502 94.91 117.532 94.97C117.572 95.03 117.602 95.09 117.642 95.17C117.752 95.4 117.852 95.67 117.932 95.98C117.952 96.06 117.972 96.14 117.992 96.23C118.052 96.49 118.102 96.76 118.132 97.06C118.142 97.15 118.152 97.26 118.162 97.36C118.182 97.56 118.202 97.77 118.212 97.98C118.212 98.09 118.222 98.2 118.232 98.31C118.252 98.67 118.252 99.04 118.232 99.43C118.232 99.58 118.232 99.73 118.212 99.88C118.202 100.18 118.182 100.49 118.152 100.79V100.87C118.122 101.44 118.082 101.94 118.032 102.34C117.962 102.92 117.852 103.46 117.692 103.97C117.642 104.14 117.582 104.3 117.522 104.46C117.492 104.59 117.452 104.71 117.412 104.84C117.382 104.95 117.352 105.04 117.312 105.15C117.282 105.25 117.252 105.34 117.212 105.44C117.182 105.52 117.152 105.6 117.122 105.67C117.092 105.75 117.062 105.82 117.032 105.89C117.002 105.96 116.972 106.03 116.942 106.1C116.862 106.29 116.772 106.46 116.682 106.63C116.632 106.71 116.592 106.79 116.542 106.87C116.442 107.03 116.342 107.18 116.232 107.31C116.202 107.36 116.162 107.4 116.122 107.44C116.072 107.5 116.022 107.55 115.972 107.6C115.842 107.72 115.712 107.84 115.572 107.95C115.502 108.01 115.422 108.07 115.352 108.13C115.332 108.15 115.312 108.16 115.292 108.18C115.192 108.26 115.082 108.33 114.972 108.4C114.852 108.48 114.732 108.56 114.602 108.63C114.492 108.69 114.382 108.75 114.272 108.81C114.182 108.86 114.092 108.9 114.002 108.95C113.982 108.95 113.962 108.97 113.952 108.97C113.862 109.02 113.772 109.06 113.682 109.1C113.572 109.15 113.462 109.19 113.342 109.24C113.152 109.31 112.972 109.38 112.782 109.44C112.172 109.64 111.542 109.78 110.902 109.87C110.932 109.87 110.962 109.86 110.992 109.85C110.962 109.85 110.932 109.85 110.902 109.86V109.84ZM80.022 101.99V102.01C79.992 102.34 79.972 102.61 79.942 102.82C79.232 108.4 73.842 110.76 69.132 109.86C69.112 109.86 69.102 109.86 69.082 109.85C67.152 109.59 65.332 108.84 64.012 107.59C63.372 106.99 62.862 105.88 62.482 104.56V104.54C62.222 103.87 62.042 103.13 61.942 102.33C61.892 101.88 61.832 101.29 61.812 100.63C61.622 98.15 61.842 95.77 62.562 94.8C62.662 94.66 62.812 94.54 63.032 94.42C63.032 94.42 63.032 94.42 63.052 94.42C63.092 94.37 63.132 94.33 63.182 94.3C63.702 93.87 64.782 93.58 66.962 93.42C67.072 93.42 67.182 93.41 67.302 93.4C70.752 93.1 74.922 93.21 76.922 93.61C76.982 93.62 77.032 93.63 77.092 93.64C77.152 93.65 77.212 93.66 77.282 93.67C77.312 93.67 77.342 93.67 77.362 93.68C77.382 93.68 77.402 93.68 77.422 93.68C78.052 93.76 79.172 93.85 79.312 93.94C79.802 94.3 79.832 95 79.912 95.86C79.912 95.87 79.912 95.88 79.912 95.89C79.962 96.17 79.992 96.46 80.022 96.77C80.022 96.77 80.022 96.77 80.022 96.79C80.302 98.38 80.252 100.32 80.042 102L80.022 101.99ZM111.532 153.06C111.752 165.34 102.792 176.27 89.982 176.06C77.052 176.28 68.052 165.14 68.442 152.71C68.442 152.68 68.442 152.65 68.442 152.62C68.442 151.87 68.492 151.11 68.562 150.36C68.562 150.36 68.562 150.36 68.572 150.37C68.582 150.38 68.582 150.37 68.592 150.39C68.592 150.39 68.612 150.4 68.612 150.41C68.612 150.39 68.612 150.38 68.612 150.36C69.302 150.19 69.212 150.63 69.292 150.98C75.402 156.04 82.672 158.7 89.962 158.78C97.252 158.7 104.532 156.04 110.642 150.98C110.722 150.63 110.622 150.19 111.322 150.36C111.322 150.37 111.322 150.39 111.322 150.41C111.342 150.39 111.352 150.38 111.372 150.36C111.462 151.24 111.502 152.13 111.502 153V153.06H111.532ZM89.992 151.86H89.862C89.712 151.86 89.562 151.86 89.422 151.86C77.612 151.64 66.232 142.48 59.312 126.75C57.662 123.01 57.192 117.79 55.842 115.1C55.032 113.49 52.442 111.88 51.172 110.35C46.882 105.16 44.602 101.3 45.762 94.29C46.192 91.73 50.032 88.34 52.802 89.61C53.192 89.62 53.542 89.71 53.822 89.89C55.942 91.23 55.792 94.77 55.512 98.18C55.432 100.02 55.272 101.86 55.302 103.39C55.302 103.42 55.302 103.45 55.302 103.48C56.512 114.08 67.182 118.05 75.742 116.04C75.772 116.04 75.792 116.02 75.822 116.02C80.302 114.84 84.192 111.93 85.762 107.19C86.212 105.81 86.402 102.92 86.552 101.19V101.16C86.572 100.49 86.612 99.99 86.722 99.83C87.022 99.37 88.512 99.21 89.982 99.25C91.452 99.21 92.932 99.37 93.232 99.83C93.322 99.97 93.362 100.4 93.382 100.99V101.03C93.542 102.74 93.722 105.77 94.192 107.19C95.772 111.96 99.692 114.87 104.202 116.04C104.222 116.04 104.232 116.04 104.252 116.05C112.812 118.05 123.442 114.06 124.652 103.48C124.652 103.45 124.652 103.42 124.652 103.39C124.682 101.87 124.512 100.03 124.442 98.19C124.162 94.78 124.012 91.24 126.132 89.89C126.412 89.71 126.752 89.63 127.152 89.61C129.932 88.35 133.772 91.74 134.192 94.29C135.362 101.3 133.072 105.15 128.782 110.35C127.522 111.88 124.922 113.49 124.112 115.1C122.762 117.79 122.292 123.01 120.642 126.75C113.612 142.72 101.982 151.93 89.972 151.87L89.992 151.86Z" fill="#24405E"/>
<path d="M47.0819 166.04C46.8719 166.11 46.6619 166.18 46.4619 166.25C46.0619 166.39 45.6519 166.54 45.2419 166.69C44.4019 166.99 43.5819 167.31 42.7719 167.65C42.3619 167.81 41.9519 167.99 41.5519 168.17C41.0919 168.36 40.6419 168.57 40.1919 168.79C40.1919 168.79 40.2019 168.79 40.2119 168.79C40.6519 168.58 41.1019 168.37 41.5619 168.18C41.9619 168 42.3719 167.82 42.7819 167.66C43.6019 167.32 44.4219 167 45.2519 166.7C45.6619 166.55 46.0619 166.4 46.4719 166.26C46.6719 166.19 46.8919 166.12 47.0919 166.05L47.0819 166.04ZM90.4819 182.87H90.7119C90.7719 182.87 90.8219 182.87 90.8819 182.87C90.7519 182.87 90.6219 182.87 90.4919 182.87H90.4819ZM110.802 109.86C106.102 110.74 100.752 108.37 100.032 102.81C100.002 102.59 99.9819 102.31 99.9519 101.97C99.9519 101.92 99.9319 101.87 99.9319 101.83C99.9619 102.23 99.9919 102.57 100.022 102.81C100.752 108.39 106.132 110.75 110.842 109.85C110.822 109.85 110.812 109.85 110.792 109.85L110.802 109.86ZM115.622 166.78C115.462 167.11 115.312 167.44 115.132 167.76C115.072 167.88 115.012 167.99 114.942 168.11C114.822 168.34 114.702 168.57 114.572 168.79C114.492 168.93 114.412 169.07 114.322 169.21C114.042 169.69 113.742 170.16 113.432 170.61C113.312 170.8 113.192 170.98 113.062 171.15C113.042 171.19 113.012 171.23 112.982 171.26C112.842 171.46 112.692 171.66 112.542 171.85C112.172 172.34 111.792 172.81 111.382 173.27C111.192 173.49 111.012 173.71 110.812 173.91C110.572 174.17 110.332 174.42 110.082 174.66C109.992 174.75 109.902 174.84 109.812 174.92C109.632 175.11 109.442 175.28 109.252 175.45C108.992 175.69 108.722 175.93 108.452 176.15C108.222 176.34 107.982 176.53 107.752 176.72C107.482 176.93 107.212 177.14 106.942 177.34C106.692 177.52 106.442 177.7 106.192 177.87C105.802 178.14 105.412 178.39 105.012 178.63C104.822 178.75 104.632 178.86 104.442 178.97C103.592 179.47 102.722 179.91 101.832 180.31C101.552 180.43 101.262 180.56 100.982 180.67C100.802 180.75 100.632 180.81 100.452 180.88C100.432 180.89 100.422 180.9 100.402 180.9C100.142 181.01 99.8719 181.1 99.6019 181.2C99.2619 181.32 98.9219 181.43 98.5819 181.54C98.5419 181.55 98.5019 181.57 98.4619 181.58C98.1519 181.67 97.8319 181.77 97.5219 181.85C97.2219 181.93 96.9119 182.01 96.6119 182.08C96.4519 182.13 96.2819 182.16 96.1119 182.19C95.8119 182.26 95.5019 182.32 95.1919 182.38C94.8719 182.44 94.5419 182.5 94.2119 182.54C93.8919 182.59 93.5819 182.63 93.2619 182.66C92.8919 182.71 92.5119 182.74 92.1419 182.77C92.2519 182.77 92.3619 182.75 92.4819 182.75C92.7419 182.73 93.0119 182.7 93.2719 182.67C93.5919 182.64 93.9019 182.59 94.2219 182.55C94.5519 182.5 94.8819 182.45 95.2019 182.39C95.5119 182.33 95.8119 182.27 96.1219 182.2C96.2919 182.17 96.4519 182.13 96.6219 182.09C96.9219 182.02 97.2319 181.95 97.5319 181.86C97.8419 181.78 98.1619 181.69 98.4719 181.59C98.5219 181.57 98.5619 181.56 98.5919 181.55C98.9319 181.44 99.2719 181.33 99.6119 181.21C99.8819 181.12 100.152 181.02 100.412 180.91C100.432 180.91 100.442 180.9 100.462 180.88C100.642 180.82 100.812 180.75 100.992 180.68C101.282 180.56 101.562 180.44 101.842 180.31C102.732 179.92 103.602 179.47 104.452 178.97C104.642 178.86 104.832 178.75 105.012 178.63C105.412 178.39 105.802 178.14 106.192 177.87C106.452 177.7 106.702 177.53 106.942 177.34C107.222 177.14 107.482 176.93 107.752 176.72C107.992 176.53 108.222 176.34 108.452 176.15C108.722 175.93 108.982 175.69 109.242 175.45C109.432 175.28 109.612 175.1 109.802 174.92C109.892 174.84 109.982 174.75 110.072 174.66C110.322 174.42 110.572 174.16 110.802 173.91C111.002 173.7 111.192 173.49 111.372 173.27C111.772 172.81 112.162 172.34 112.532 171.85C112.682 171.65 112.832 171.46 112.972 171.26C113.002 171.22 113.032 171.18 113.052 171.15C113.182 170.97 113.302 170.79 113.422 170.61C113.732 170.16 114.032 169.69 114.312 169.21C114.402 169.08 114.482 168.93 114.562 168.79C114.692 168.57 114.822 168.34 114.932 168.11C114.992 168 115.052 167.89 115.122 167.77C115.302 167.45 115.452 167.12 115.612 166.79C115.652 166.71 115.682 166.64 115.722 166.56C115.722 166.54 115.742 166.52 115.752 166.5C115.802 166.4 115.842 166.3 115.882 166.2C115.962 166.01 116.042 165.82 116.132 165.63C115.962 166.02 115.792 166.4 115.612 166.78H115.622ZM117.472 161.87V161.89C117.472 161.89 117.472 161.89 117.472 161.87L117.632 161.92C117.632 161.92 117.682 161.93 117.712 161.94L117.472 161.86V161.87ZM141.442 161.38C141.672 164.01 141.502 166.69 141.542 169.34L139.782 168.8C139.782 168.8 139.812 168.81 139.822 168.82L141.552 169.35C141.512 166.71 141.682 164.02 141.452 161.39L141.442 161.38ZM97.1919 22.36C97.1919 22.36 97.1619 22.33 97.1419 22.32C97.4519 22.62 97.7519 22.89 98.0419 23.11C97.7619 22.89 97.4919 22.63 97.1919 22.35V22.36Z" fill="#24405E"/>
<path d="M99.9618 96.76C99.9618 96.76 99.9618 96.83 99.9518 96.87C99.9518 96.83 99.9618 96.79 99.9718 96.76H99.9618ZM139.772 168.79C132.722 165.45 124.382 163.52 117.712 161.95C117.682 161.95 117.662 161.94 117.632 161.93L117.712 161.96C117.712 161.96 117.762 161.97 117.782 161.98C117.782 161.98 117.782 161.98 117.792 161.98C124.432 163.53 132.712 165.47 139.732 168.78C139.732 168.78 139.762 168.79 139.772 168.8H139.802C139.802 168.8 139.772 168.8 139.762 168.8L139.772 168.79ZM118.222 98.29C118.242 98.65 118.242 99.02 118.222 99.41C118.232 99.03 118.222 98.65 118.222 98.29ZM116.262 165.33C116.262 165.33 116.272 165.32 116.272 165.31C116.282 165.28 116.302 165.25 116.312 165.22C116.312 165.22 116.312 165.2 116.322 165.19C116.322 165.17 116.342 165.15 116.352 165.13C116.412 164.99 116.452 164.84 116.512 164.69C116.432 164.9 116.352 165.12 116.272 165.33H116.262ZM117.462 161.89C117.462 161.89 117.412 161.88 117.402 161.87C117.382 161.95 117.362 162.03 117.342 162.1C117.362 162.02 117.392 161.95 117.412 161.87C117.432 161.87 117.452 161.88 117.472 161.89H117.462ZM113.262 28.87C113.302 28.89 113.342 28.9 113.382 28.92C113.342 28.91 113.302 28.89 113.272 28.87H113.262ZM111.002 109.82C111.002 109.82 110.992 109.82 110.982 109.82C110.952 109.82 110.922 109.83 110.892 109.84C111.532 109.75 112.162 109.61 112.772 109.41C112.202 109.59 111.602 109.73 111.002 109.81V109.82ZM99.9618 96.76C99.6918 98.3 99.7318 100.17 99.9318 101.81C99.9318 101.76 99.9318 101.72 99.9318 101.67C99.9318 101.67 99.9318 101.65 99.9318 101.64C99.7418 100.09 99.7118 98.35 99.9518 96.89C99.9518 96.89 99.9518 96.87 99.9518 96.86C99.9518 96.82 99.9618 96.78 99.9718 96.75L99.9618 96.76ZM79.2918 93.93C79.1518 93.84 78.0318 93.75 77.4018 93.67C78.0918 93.78 78.9518 93.92 79.2118 94.07C79.2318 94.08 79.2518 94.1 79.2618 94.11C79.4118 94.25 79.5418 94.49 79.6418 94.79C79.6718 94.86 79.6918 94.93 79.7118 95.01C79.7818 95.26 79.8418 95.54 79.8918 95.85C79.8118 94.99 79.7818 94.3 79.2918 93.93ZM97.1518 22.32C97.1518 22.32 97.1318 22.3 97.1218 22.29C97.1318 22.29 97.1418 22.31 97.1518 22.32C97.1718 22.33 97.1818 22.34 97.2018 22.36C97.1918 22.34 97.1718 22.33 97.1618 22.32H97.1518Z" fill="#24405E"/>
<path d="M47.7519 40.64C48.0319 40.49 48.3119 40.36 48.5919 40.23C49.0619 40.03 49.5219 39.85 49.9719 39.71C51.2419 39.29 52.3119 39.1 52.7419 38.96C52.7619 38.96 52.7919 38.94 52.8119 38.94C52.8419 38.92 52.8719 38.91 52.9019 38.89C52.9019 38.89 52.9219 38.88 52.9319 38.87C53.0719 38.72 52.9319 36.86 53.2519 36.01C53.7219 34.75 54.4719 33.55 55.4219 32.51C55.4919 32.43 55.5619 32.36 55.6319 32.29C55.7019 32.22 55.7719 32.15 55.8419 32.07C55.9519 31.96 56.0719 31.85 56.1819 31.74C56.4719 31.48 56.7819 31.22 57.1019 30.98C57.4219 30.74 57.7519 30.52 58.0919 30.31C58.3619 30.15 58.6419 29.99 58.9319 29.85C59.4119 29.61 59.9119 29.4 60.4219 29.23C60.5319 29.2 60.6319 29.16 60.7419 29.13C60.8519 29.1 60.9619 29.07 61.0819 29.04C61.3319 28.98 61.5819 28.92 61.8319 28.87C62.0919 28.82 62.3419 28.79 62.6019 28.76C63.2119 28.7 63.9319 28.81 64.6119 28.92C64.6119 28.92 64.6219 28.92 64.6319 28.92H64.6419C64.6419 28.92 64.6619 28.92 64.6719 28.92C65.0119 29.01 65.3319 29.09 65.6019 29.06H65.6319C65.6319 29.06 65.7219 29.04 65.7619 29.03C66.2419 28.91 68.8219 25.11 71.4019 24.04C72.3219 23.66 73.1419 23.43 73.8919 23.3C77.1119 22.75 78.8519 24.15 80.8519 23.78C80.9319 23.76 81.0119 23.74 81.1019 23.71C81.1719 23.69 81.2419 23.66 81.3219 23.62C81.3919 23.59 81.4619 23.55 81.5419 23.51C81.6019 23.48 81.6619 23.43 81.7319 23.39C81.7319 23.39 81.7519 23.38 81.7619 23.37C81.8319 23.32 81.9019 23.28 81.9719 23.21C82.0419 23.16 82.1119 23.1 82.1919 23.04C82.2419 22.99 82.3019 22.95 82.3519 22.9C82.5119 22.76 82.6819 22.6 82.8519 22.43C82.8919 22.4 82.9219 22.37 82.9619 22.34C83.0019 22.31 83.0419 22.28 83.0819 22.25C83.1619 22.19 83.2519 22.13 83.3319 22.06C83.5819 21.87 83.8519 21.67 84.1419 21.47C84.3319 21.34 84.5119 21.21 84.7119 21.08C85.1119 20.82 85.5219 20.57 85.9519 20.34C86.1619 20.23 86.3819 20.12 86.6019 20.02C86.8219 19.92 87.0519 19.83 87.2719 19.75C87.3819 19.71 87.5019 19.67 87.6119 19.63C88.0319 19.5 88.4619 19.4 88.8919 19.35C89.0019 19.33 89.1119 19.32 89.2119 19.32C89.4619 19.29 89.7019 19.28 89.9419 19.28H90.0119C90.3719 19.28 90.7419 19.31 91.1319 19.36C91.6819 19.42 92.2219 19.56 92.7619 19.76C92.2319 19.56 91.6819 19.42 91.1319 19.36C90.7419 19.31 90.3719 19.28 90.0119 19.28C93.8619 19.18 95.7119 21.04 97.1319 22.4H97.1419C97.1419 22.4 97.1619 22.43 97.1719 22.44C97.4819 22.74 97.7819 23.01 98.0719 23.23C97.7919 23.01 97.5219 22.75 97.2219 22.47C98.0719 23.14 98.7019 23.65 99.0019 23.69C100.962 23.95 102.242 22.27 106.082 23.27C106.082 23.27 106.092 23.27 106.102 23.27C106.102 23.27 106.122 23.27 106.132 23.27C106.132 23.27 106.152 23.27 106.162 23.27C106.342 23.32 106.532 23.38 106.722 23.44C110.932 24.78 111.872 28.18 113.292 28.97C113.332 28.99 113.372 29 113.412 29.02C113.482 29.04 113.562 29.06 113.642 29.07C113.672 29.07 113.692 29.07 113.722 29.07C113.842 29.07 113.982 29.07 114.122 29.07C114.202 29.07 114.282 29.05 114.362 29.04C114.372 29.04 114.382 29.04 114.392 29.04C114.672 29.07 114.982 28.99 115.322 28.9C115.332 28.9 115.342 28.9 115.352 28.9C116.042 28.79 116.782 28.67 117.402 28.73C117.662 28.76 117.912 28.79 118.172 28.84C118.292 28.86 118.422 28.89 118.552 28.92C118.642 28.94 118.722 28.96 118.812 28.98C118.832 28.98 118.862 28.98 118.882 28.99C118.912 28.99 118.942 29 118.962 29.01C119.082 29.04 119.192 29.07 119.312 29.11C122.672 30.13 125.602 32.83 126.752 35.96C127.062 36.81 126.932 38.66 127.072 38.82C127.292 39.04 129.812 39.31 132.212 40.57H132.222C133.292 41.14 134.322 41.89 135.132 42.92C138.002 46.63 136.582 50.64 137.412 51.97C137.522 52.16 140.352 53.55 141.222 54.36C143.802 56.76 144.842 59.84 144.512 63.29C144.352 65 142.842 67.1 142.842 67.33C142.862 67.83 147.572 71.45 147.572 75.94C147.572 80.43 143.562 83.01 143.372 84.07C143.282 84.57 144.732 86.38 144.972 87.58C146.272 94.05 143.512 94.19 141.662 98.53C141.472 98.98 141.302 99.42 141.162 99.88C140.582 101.65 140.292 103.46 139.822 105.33V105.36C138.852 108.14 137.442 110.77 135.432 113.24C133.802 115.24 130.072 117.59 129.232 118.83C127.762 121.02 125.982 128.84 124.372 132.6C123.292 134.69 121.502 137.29 120.092 139.78C120.092 139.79 120.072 139.8 120.072 139.81C118.812 141.82 117.752 143.53 117.732 143.8C117.512 146.19 118.482 149.42 118.712 152.11C118.682 152.41 118.642 152.68 118.572 152.96C118.632 152.98 118.692 153.01 118.762 153.02C131.092 157.21 158.662 165.05 160.732 179.53C161.322 183.62 160.962 186.19 155.962 185.52C153.612 183.1 153.062 179.8 150.792 176.94C148.462 174.01 145.232 171.66 141.572 169.74C141.002 169.44 140.432 169.16 139.852 168.88C139.842 168.88 139.822 168.87 139.812 168.86C132.762 165.52 124.422 163.59 117.752 162.02L117.512 161.94V161.96C117.492 161.96 117.462 161.95 117.452 161.94C117.432 162.02 117.412 162.1 117.392 162.17C117.372 162.25 117.342 162.32 117.332 162.4C117.302 162.52 117.262 162.65 117.222 162.77C117.182 162.89 117.142 163.02 117.112 163.14C117.062 163.3 117.012 163.46 116.962 163.61C116.912 163.77 116.852 163.92 116.802 164.08C116.732 164.3 116.652 164.52 116.572 164.74C116.572 164.74 116.572 164.75 116.572 164.76C116.492 164.97 116.412 165.19 116.332 165.4C116.332 165.4 116.342 165.39 116.342 165.38C116.352 165.35 116.372 165.32 116.382 165.29C116.372 165.32 116.362 165.36 116.342 165.39V165.41C116.312 165.49 116.282 165.57 116.242 165.65C116.242 165.67 116.222 165.69 116.222 165.71C116.142 165.91 116.062 166.1 115.972 166.29C115.932 166.38 115.882 166.48 115.842 166.58C115.892 166.48 115.932 166.38 115.972 166.28C116.052 166.09 116.132 165.9 116.222 165.71C116.052 166.1 115.882 166.48 115.702 166.86C115.542 167.19 115.392 167.52 115.212 167.84C115.152 167.96 115.092 168.07 115.022 168.19C114.902 168.42 114.782 168.65 114.652 168.87C114.572 169.01 114.492 169.15 114.402 169.29C114.122 169.77 113.822 170.24 113.512 170.69C113.392 170.88 113.272 171.06 113.142 171.23C113.122 171.27 113.092 171.31 113.062 171.34C112.922 171.54 112.772 171.74 112.622 171.93C112.252 172.42 111.872 172.89 111.462 173.35C111.272 173.57 111.092 173.79 110.892 173.99C110.652 174.25 110.412 174.5 110.162 174.74C110.072 174.83 109.982 174.92 109.892 175C109.712 175.19 109.522 175.36 109.332 175.53C109.072 175.77 108.802 176.01 108.532 176.23C108.302 176.42 108.062 176.61 107.832 176.8C107.562 177.01 107.292 177.22 107.022 177.42C106.772 177.6 106.522 177.78 106.272 177.95C105.882 178.22 105.492 178.47 105.092 178.71C104.902 178.83 104.712 178.94 104.522 179.05C103.672 179.55 102.802 179.99 101.912 180.39C101.632 180.51 101.342 180.64 101.062 180.75C100.882 180.83 100.712 180.89 100.532 180.96C100.512 180.97 100.502 180.98 100.482 180.98C100.222 181.09 99.9519 181.18 99.6819 181.28C99.3419 181.4 99.0019 181.51 98.6619 181.62C98.6219 181.63 98.5819 181.65 98.5419 181.66C98.2319 181.75 97.9119 181.85 97.6019 181.93C97.3019 182.01 96.9919 182.09 96.6919 182.16C96.5319 182.21 96.3619 182.24 96.1919 182.27C95.8919 182.34 95.5819 182.4 95.2719 182.46C94.9519 182.52 94.6219 182.58 94.2919 182.62C93.9719 182.67 93.6619 182.71 93.3419 182.74C92.9719 182.79 92.5919 182.82 92.2219 182.85C92.3319 182.85 92.4419 182.83 92.5619 182.83C92.4419 182.84 92.3319 182.85 92.2119 182.86C91.9819 182.88 91.7519 182.9 91.5219 182.9C91.4919 182.9 91.4519 182.9 91.4119 182.9C91.3219 182.9 91.2419 182.9 91.1619 182.91C91.1019 182.91 91.0419 182.91 90.9819 182.91C90.8519 182.91 90.7219 182.91 90.5919 182.91H90.4619C90.3419 182.91 90.2219 182.91 90.1019 182.91C89.8019 182.91 89.5019 182.91 89.2119 182.9C89.0519 182.9 88.8919 182.88 88.7319 182.88C88.5719 182.88 88.4119 182.86 88.2519 182.85C88.0119 182.83 87.7719 182.82 87.5319 182.79C87.4119 182.78 87.2819 182.77 87.1619 182.75C86.8819 182.72 86.6019 182.69 86.3219 182.65C86.1719 182.63 86.0219 182.61 85.8819 182.59C85.6819 182.56 85.4819 182.53 85.2819 182.5C85.1519 182.48 85.0219 182.45 84.8819 182.43C84.7419 182.4 84.6019 182.38 84.4619 182.35C83.9619 182.25 83.4719 182.14 82.9819 182.01C82.7019 181.94 82.4319 181.87 82.1519 181.79C82.0619 181.77 81.9819 181.74 81.8919 181.71C81.6319 181.63 81.3619 181.55 81.1019 181.46C80.7919 181.36 80.4819 181.26 80.1819 181.14C80.0519 181.09 79.9219 181.05 79.7919 181C79.7419 180.98 79.6819 180.96 79.6319 180.94C79.3519 180.83 79.0819 180.72 78.8119 180.61C78.6619 180.55 78.5119 180.48 78.3619 180.41C78.2419 180.36 78.1219 180.3 78.0019 180.25C77.8219 180.17 77.6419 180.09 77.4719 180C77.3219 179.93 77.1719 179.86 77.0319 179.78C76.7419 179.63 76.4519 179.48 76.1619 179.32C76.0219 179.24 75.8719 179.16 75.7319 179.08C74.8819 178.59 74.0419 178.05 73.2319 177.46C72.9719 177.26 72.7019 177.06 72.4419 176.86C72.1819 176.65 71.9219 176.44 71.6619 176.23C71.1519 175.8 70.6519 175.34 70.1719 174.87C70.0619 174.76 69.9519 174.65 69.8419 174.55C69.8119 174.52 69.7719 174.48 69.7319 174.44C69.6419 174.34 69.5419 174.24 69.4519 174.14C69.3319 174.02 69.2219 173.89 69.1019 173.76C68.9919 173.64 68.8719 173.51 68.7619 173.38C68.6519 173.25 68.5319 173.12 68.4219 172.99C68.0919 172.6 67.7619 172.19 67.4419 171.77C67.1319 171.35 66.8219 170.92 66.5219 170.48C66.4219 170.33 66.3219 170.18 66.2319 170.03C66.1419 169.88 66.0419 169.73 65.9419 169.58C65.7519 169.28 65.5719 168.97 65.3919 168.65C65.3019 168.49 65.2219 168.33 65.1319 168.17C65.0419 168.01 64.9619 167.85 64.8719 167.69C64.6219 167.2 64.3819 166.7 64.1519 166.19C64.0719 166.02 64.0019 165.85 63.9319 165.68C63.8719 165.54 63.8219 165.4 63.7719 165.26C63.7019 165.08 63.6319 164.9 63.5619 164.71C63.5019 164.55 63.4419 164.39 63.3919 164.23C63.3919 164.22 63.3819 164.21 63.3819 164.2C63.2719 163.88 63.1619 163.56 63.0519 163.22C62.9219 162.8 62.8019 162.37 62.6819 161.93C62.6819 161.93 62.6419 161.95 62.6219 161.95V161.93L62.4219 162H62.3919C62.3919 162 62.3719 162 62.3619 162.02H62.3419C62.2319 162.04 62.1319 162.07 62.0219 162.09C61.9019 162.12 61.7919 162.15 61.6719 162.17C61.0719 162.31 60.4519 162.45 59.8219 162.61C59.7119 162.63 59.6019 162.66 59.4919 162.69C59.1519 162.77 58.8019 162.85 58.4519 162.94C58.0119 163.04 57.5719 163.15 57.1219 163.27C56.7819 163.35 56.4419 163.43 56.0919 163.53C55.3919 163.7 54.6919 163.89 53.9819 164.07C53.9619 164.07 53.9319 164.09 53.9119 164.09C53.5019 164.2 53.0819 164.32 52.6519 164.44C52.2119 164.56 51.7619 164.68 51.3219 164.81C50.4219 165.07 49.5319 165.34 48.6319 165.63C48.3919 165.71 48.1519 165.78 47.9119 165.86C47.6719 165.94 47.4319 166.02 47.2019 166.1C46.9919 166.17 46.7819 166.24 46.5819 166.31C46.1819 166.45 45.7719 166.6 45.3619 166.75C44.5219 167.05 43.7019 167.37 42.8919 167.71C42.4819 167.87 42.0719 168.05 41.6719 168.23C41.2119 168.42 40.7619 168.63 40.3119 168.85C40.0019 169 39.6819 169.15 39.3719 169.31C39.1019 169.44 38.8319 169.58 38.5619 169.72C38.3319 169.84 38.1119 169.96 37.8819 170.09C37.2019 170.46 36.5419 170.84 35.9019 171.25C35.6419 171.41 35.3919 171.57 35.1419 171.73C35.1119 171.75 35.0719 171.78 35.0319 171.8C34.7219 172.01 34.4219 172.22 34.1219 172.43C33.8219 172.65 33.5119 172.88 33.2219 173.1C32.9219 173.33 32.6419 173.56 32.3619 173.8C32.0819 174.04 31.8019 174.28 31.5419 174.53C31.2719 174.78 31.0119 175.03 30.7619 175.29C30.7619 175.29 30.7419 175.31 30.7319 175.32C30.5419 175.51 30.3519 175.71 30.1819 175.91C30.1519 175.94 30.1319 175.96 30.1119 175.99C30.0519 176.05 30.0019 176.1 29.9519 176.17C29.9119 176.21 29.8819 176.25 29.8519 176.29C29.6619 176.49 29.5019 176.7 29.3319 176.91C27.0619 179.77 26.5219 183.07 24.1619 185.49C19.1619 186.16 18.8119 183.59 19.4019 179.5C21.4719 165.01 49.0419 157.17 61.3719 152.99C61.3719 152.99 61.4319 152.97 61.4619 152.96C61.4819 152.96 61.4919 152.94 61.5119 152.94C61.5319 152.94 61.5419 152.93 61.5519 152.92C61.5019 152.71 61.4619 152.5 61.4319 152.28C61.4319 152.21 61.4119 152.14 61.4119 152.07C61.6319 149.38 62.6119 146.14 62.3919 143.75C62.3619 143.47 61.2619 141.7 59.9719 139.63C58.5519 137.15 56.7719 134.55 55.7119 132.48C55.7119 132.47 55.7119 132.47 55.7119 132.47C54.1119 128.69 52.3519 120.96 50.8819 118.78C50.7019 118.51 50.3919 118.19 49.9919 117.84C49.9319 117.79 49.8719 117.74 49.8119 117.68C48.9319 116.92 47.7219 116.01 46.6219 115.08C46.5519 115.02 46.4819 114.96 46.4219 114.9C46.2019 114.71 45.9919 114.53 45.7919 114.34C45.6519 114.21 45.5119 114.08 45.3919 113.95C45.1319 113.69 44.8919 113.44 44.6919 113.19C42.6919 110.73 41.2719 108.11 40.3119 105.34C39.8419 103.44 39.5419 101.59 38.9519 99.8V99.78H38.9419C38.8019 99.34 38.6419 98.92 38.4619 98.49C36.6119 94.15 33.8519 94.01 35.1519 87.54C35.3919 86.34 36.8419 84.53 36.7519 84.03C36.5619 82.97 32.5519 80.39 32.5519 75.9C32.5519 71.41 37.2719 67.78 37.2819 67.29C37.2819 67.06 35.7719 64.96 35.6019 63.25C35.2819 59.8 36.3119 56.71 38.9019 54.32C39.7819 53.51 42.6019 52.11 42.7219 51.93C43.5319 50.6 42.1119 46.59 44.9919 42.88C45.7819 41.85 46.8119 41.11 47.8719 40.55" fill="#24405E"/>
<path d="M111.532 152.99V153.05C111.752 165.33 102.792 176.26 89.9818 176.05C88.3218 176.03 86.5918 175.81 84.8118 175.38C73.9018 172.77 68.3218 162.83 68.4418 152.69C68.4418 152.66 68.4418 152.63 68.4418 152.6C68.4418 151.85 68.4918 151.09 68.5618 150.34C68.5718 150.35 68.5918 150.37 68.6118 150.39C68.8418 150.58 69.0718 150.78 69.3018 150.96C75.4118 156.02 82.6818 158.68 89.9718 158.76C97.1618 158.84 104.372 156.39 110.502 151.23C110.582 151.16 110.622 151.07 110.652 150.96C110.732 150.61 110.632 150.17 111.332 150.34C111.332 150.35 111.332 150.37 111.332 150.39C111.432 151.26 111.502 152.13 111.512 152.99H111.532Z" fill="#24405E"/>
<path d="M59.1918 88.93C58.7518 89.32 58.3418 89.71 57.7918 89.95C57.4418 87.48 57.3518 85.16 57.5018 82.97C57.4118 85.12 57.6818 87.27 58.3418 89.37C58.6118 89.21 58.9018 89.07 59.1918 88.93Z" fill="#3485DF"/>
<path d="M89.9621 92.95C88.5421 92.97 86.9821 92.93 86.5221 92.83C86.0321 92.72 84.1021 88.03 79.1421 87.13C84.2521 87.84 85.7521 92.49 87.5421 92.82C87.9221 92.89 88.8921 92.93 89.9621 92.94V92.95Z" fill="#3485DF"/>
<path d="M120.792 88.93C118.732 87.97 116.112 87.36 113.352 87.03C116.072 87.22 118.462 87.56 119.602 88.1C120.072 88.32 120.432 88.62 120.782 88.92L120.792 88.93Z" fill="#3485DF"/>
<path d="M122.192 89.95C121.642 89.71 121.232 89.32 120.792 88.93C120.442 88.63 120.072 88.33 119.612 88.11C118.462 87.57 116.082 87.23 113.362 87.04H113.342C109.302 86.75 104.552 86.79 102.042 86.99C101.812 87.01 101.592 87.04 101.402 87.05C101.242 87.07 101.082 87.1 100.922 87.12C100.902 87.12 100.892 87.12 100.872 87.12C95.8818 88.01 93.9418 92.71 93.4618 92.83C93.0318 92.93 91.6118 92.97 90.2718 92.95H89.9818C88.9118 92.94 87.9418 92.89 87.5618 92.83C85.7718 92.5 84.2718 87.84 79.1618 87.14C79.1318 87.14 79.1118 87.14 79.0718 87.12C78.7118 87.08 78.3318 87.03 77.9418 86.99C74.6818 86.66 70.5318 86.58 66.6618 87.04H66.6518C63.8918 87.37 61.2718 87.97 59.2118 88.94C58.9118 89.08 58.6218 89.22 58.3618 89.38C57.7018 87.28 57.4418 85.13 57.5218 82.98C57.5818 81.2 57.8918 79.42 58.4118 77.7C59.7918 72.99 62.7318 68.6 66.6018 65.28C66.6118 65.27 66.6318 65.25 66.6518 65.24C69.2918 62.97 72.3818 61.22 75.7018 60.19C76.5118 59.94 77.3318 59.71 78.1618 59.51C78.1818 59.51 78.2018 59.5 78.2218 59.49C82.1518 58.51 86.1418 58.01 90.0318 57.98C94.1318 57.95 98.1218 58.46 101.832 59.49C101.852 59.49 101.872 59.51 101.892 59.51C106.212 60.72 110.152 62.63 113.392 65.24C113.412 65.25 113.422 65.27 113.442 65.28C117.322 68.41 120.212 72.55 121.622 77.66C122.092 79.33 122.392 81.1 122.512 82.98C122.662 85.16 122.582 87.49 122.222 89.95H122.192Z" fill="#3485DF"/>
<path d="M128.802 110.35C127.542 111.88 124.942 113.49 124.132 115.1C122.782 117.79 122.312 123.01 120.662 126.75C113.632 142.72 102.002 151.93 89.992 151.87H89.862C77.892 151.87 66.322 142.68 59.312 126.75C57.662 123.01 57.192 117.79 55.842 115.1C55.032 113.49 52.442 111.88 51.172 110.35C46.882 105.16 44.602 101.3 45.762 94.29C46.192 91.73 50.032 88.34 52.802 89.61C53.192 89.62 53.542 89.71 53.822 89.89C55.942 91.23 55.792 94.77 55.512 98.18C55.432 100.02 55.272 101.86 55.302 103.39C55.302 103.42 55.302 103.45 55.302 103.48C56.512 114.08 67.182 118.05 75.742 116.04C75.772 116.04 75.792 116.02 75.822 116.02C80.302 114.84 84.192 111.93 85.762 107.19C86.212 105.81 86.402 102.92 86.552 101.19V101.16C86.572 100.49 86.612 99.99 86.722 99.83C87.022 99.37 88.512 99.21 89.982 99.25C91.452 99.21 92.932 99.37 93.232 99.83C93.322 99.97 93.362 100.4 93.382 100.99V101.03C93.542 102.74 93.722 105.77 94.192 107.19C95.772 111.96 99.692 114.87 104.202 116.04C104.222 116.04 104.232 116.04 104.252 116.05C112.812 118.05 123.442 114.06 124.652 103.48C124.652 103.45 124.652 103.42 124.652 103.39C124.682 101.87 124.512 100.03 124.442 98.19C124.162 94.78 124.012 91.24 126.132 89.89C126.412 89.71 126.752 89.63 127.152 89.61C129.932 88.35 133.772 91.74 134.192 94.29C135.362 101.3 133.072 105.15 128.782 110.35H128.802Z" fill="#3485DF"/>
<path d="M155.932 185.44H24.042C26.402 183.02 26.942 179.72 29.212 176.86C29.382 176.65 29.552 176.44 29.732 176.24C29.762 176.2 29.802 176.16 29.842 176.12C29.882 176.06 29.932 176 29.992 175.95C30.012 175.92 30.032 175.9 30.062 175.87C30.242 175.67 30.422 175.47 30.612 175.27C30.612 175.27 30.632 175.25 30.642 175.25C30.892 174.99 31.152 174.73 31.422 174.49C31.682 174.24 31.962 173.99 32.242 173.75C32.522 173.51 32.812 173.28 33.102 173.05C33.392 172.82 33.702 172.6 34.002 172.38C34.292 172.16 34.602 171.95 34.912 171.75C34.942 171.73 34.982 171.7 35.022 171.68C35.272 171.51 35.522 171.35 35.772 171.19C36.422 170.78 37.072 170.4 37.752 170.03C37.982 169.9 38.212 169.78 38.442 169.67C38.712 169.52 38.982 169.38 39.242 169.25C39.552 169.09 39.872 168.94 40.182 168.79L62.242 161.95H62.272C62.352 161.93 62.432 161.9 62.512 161.89C62.822 162.95 63.162 163.96 63.562 164.94C63.602 165.03 63.642 165.12 63.672 165.21C63.722 165.35 63.782 165.5 63.842 165.63C63.982 165.99 64.132 166.35 64.292 166.7C64.402 166.95 64.532 167.2 64.652 167.46C64.702 167.56 64.752 167.67 64.802 167.77C64.852 167.88 64.912 167.98 64.962 168.08C65.102 168.37 65.252 168.64 65.412 168.91C65.442 168.98 65.482 169.04 65.522 169.11C66.272 170.44 67.132 171.69 68.062 172.83C68.162 172.95 68.262 173.07 68.362 173.19C68.552 173.42 68.752 173.65 68.942 173.87C69.072 174 69.192 174.13 69.322 174.26C69.322 174.27 69.332 174.28 69.352 174.29C69.502 174.47 69.672 174.64 69.842 174.8C70.072 175.03 70.312 175.27 70.542 175.49C70.772 175.7 71.002 175.91 71.232 176.1C71.272 176.14 71.302 176.16 71.332 176.19C71.492 176.33 71.652 176.47 71.802 176.59C72.002 176.76 72.192 176.91 72.392 177.06C73.112 177.62 73.862 178.14 74.642 178.62C74.812 178.73 74.982 178.84 75.152 178.94C75.372 179.07 75.602 179.2 75.822 179.32C75.952 179.4 76.082 179.47 76.202 179.53C76.242 179.55 76.272 179.57 76.302 179.58C76.492 179.68 76.672 179.78 76.852 179.86C77.162 180.02 77.472 180.17 77.782 180.31C78.082 180.45 78.392 180.58 78.692 180.7C78.702 180.71 78.712 180.71 78.712 180.72C78.852 180.77 78.992 180.83 79.132 180.88C79.722 181.11 80.332 181.33 80.942 181.52C81.252 181.62 81.562 181.72 81.862 181.8C82.032 181.85 82.192 181.89 82.352 181.93C82.512 181.97 82.672 182.01 82.832 182.05C83.092 182.12 83.362 182.18 83.632 182.23C83.692 182.25 83.752 182.26 83.822 182.27C84.142 182.34 84.462 182.4 84.792 182.45C85.122 182.51 85.452 182.56 85.782 182.6C86.112 182.65 86.442 182.7 86.772 182.72C87.162 182.76 87.542 182.8 87.932 182.81C88.282 182.83 88.632 182.85 88.992 182.85C89.322 182.87 89.652 182.87 89.982 182.87C90.342 182.87 90.692 182.85 91.052 182.85C91.172 182.85 91.292 182.84 91.412 182.83C93.292 182.76 95.162 182.51 96.992 182.07C99.682 181.44 102.282 180.42 104.682 179C104.942 178.85 105.212 178.69 105.472 178.52C106.002 178.2 106.512 177.85 107.012 177.47C107.262 177.29 107.512 177.1 107.762 176.9C108.012 176.71 108.252 176.51 108.492 176.3C111.462 173.79 113.962 170.55 115.722 166.57C115.772 166.47 115.832 166.36 115.872 166.25C115.962 166.05 116.052 165.84 116.142 165.63C116.142 165.63 116.152 165.6 116.162 165.58C116.202 165.5 116.232 165.41 116.262 165.33C116.272 165.33 116.272 165.32 116.272 165.31C116.302 165.25 116.322 165.19 116.342 165.13C116.432 164.94 116.502 164.75 116.572 164.55C116.612 164.45 116.652 164.35 116.692 164.24C116.732 164.13 116.772 164.03 116.802 163.92C116.922 163.62 117.022 163.32 117.122 163.01H117.132C117.242 162.65 117.342 162.31 117.442 161.95C117.452 161.94 117.462 161.91 117.462 161.89C117.542 161.91 117.632 161.93 117.712 161.95C124.382 163.51 132.722 165.45 139.772 168.79C140.372 169.07 140.952 169.36 141.532 169.67C145.202 171.58 148.432 173.93 150.762 176.86C153.032 179.72 153.582 183.02 155.932 185.44Z" fill="#3485DF"/>
<path d="M62.2421 161.95L40.1821 168.79C40.6321 168.58 41.0921 168.37 41.5521 168.18C41.9521 168 42.3521 167.82 42.7721 167.66C43.5821 167.32 44.4121 167 45.2421 166.7C45.6521 166.54 46.0621 166.4 46.4621 166.26C46.6721 166.19 46.8821 166.11 47.0921 166.04C47.5621 165.88 48.0421 165.72 48.5221 165.57C49.4121 165.28 50.3021 165.01 51.2021 164.76C51.6521 164.62 52.0921 164.5 52.5321 164.38C52.9521 164.26 53.3721 164.15 53.7921 164.03C53.8121 164.03 53.8321 164.02 53.8621 164.01C54.5721 163.83 55.2721 163.64 55.9721 163.47C56.3121 163.37 56.6621 163.29 57.0021 163.21C57.4421 163.1 57.8921 162.99 58.3321 162.88C58.6721 162.8 59.0221 162.71 59.3621 162.63C59.4821 162.6 59.5921 162.58 59.6921 162.56C60.3221 162.41 60.9421 162.26 61.5521 162.12C61.7821 162.06 62.0121 162 62.2421 161.95Z" fill="#3485DF"/>
<path d="M63.5617 164.94C63.1617 163.96 62.8217 162.95 62.5117 161.89C62.5317 161.89 62.5617 161.88 62.5817 161.87C62.7017 162.31 62.8217 162.75 62.9517 163.17C63.0617 163.51 63.1617 163.83 63.2817 164.15C63.2817 164.15 63.2851 164.16 63.2917 164.18C63.3417 164.34 63.4017 164.5 63.4617 164.66C63.5017 164.76 63.5317 164.85 63.5617 164.94Z" fill="#3485DF"/>
<path d="M115.132 167.76C115.292 167.47 115.432 167.18 115.572 166.88C110.872 177.09 101.352 182.39 91.5317 182.82C91.7217 182.81 91.9117 182.8 92.1017 182.78C92.4817 182.75 92.8617 182.71 93.2517 182.67C93.5617 182.64 93.8817 182.6 94.1917 182.54C94.5217 182.5 94.8517 182.44 95.1717 182.38C95.4817 182.33 95.7817 182.26 96.0817 182.19C96.2517 182.16 96.4217 182.12 96.5817 182.08C96.8817 182.01 97.1917 181.94 97.4917 181.85C97.8117 181.77 98.1217 181.68 98.4317 181.58C98.4817 181.57 98.5217 181.56 98.5517 181.55C98.9017 181.44 99.2417 181.33 99.5717 181.21C99.8417 181.11 100.112 181.02 100.382 180.91C100.402 180.91 100.412 180.9 100.432 180.89C100.612 180.82 100.782 180.76 100.962 180.68C101.242 180.57 101.532 180.45 101.812 180.32C102.702 179.92 103.572 179.47 104.422 178.98C104.612 178.87 104.802 178.76 104.992 178.64C105.392 178.4 105.772 178.15 106.162 177.88C106.422 177.71 106.672 177.53 106.912 177.35C107.192 177.15 107.462 176.94 107.732 176.73C107.962 176.54 108.202 176.35 108.432 176.16C108.702 175.93 108.962 175.69 109.232 175.46C109.422 175.29 109.602 175.11 109.792 174.93C109.882 174.85 109.962 174.76 110.052 174.66C110.302 174.42 110.552 174.17 110.782 173.91C110.982 173.7 111.182 173.49 111.362 173.27C111.762 172.81 112.152 172.34 112.522 171.85C112.672 171.66 112.822 171.46 112.962 171.26C112.992 171.22 113.022 171.19 113.042 171.15C113.172 170.97 113.302 170.79 113.412 170.61C113.732 170.16 114.032 169.68 114.312 169.21C114.402 169.07 114.482 168.93 114.562 168.79C114.692 168.57 114.822 168.34 114.932 168.11C115.012 168 115.072 167.88 115.122 167.76H115.132Z" fill="#3485DF"/>
<path d="M117.712 161.95C117.632 161.93 117.542 161.91 117.462 161.89C117.462 161.89 117.472 161.88 117.472 161.87L117.712 161.95Z" fill="#3485DF"/>
<path d="M111.532 152.99V153.05C111.502 163.06 105.942 172.81 95.1616 175.39C93.3816 175.82 91.6517 176.03 89.9917 176.06C77.0617 176.28 68.0617 165.13 68.4517 152.71C68.4517 152.68 68.4517 152.65 68.4517 152.62C68.4717 151.89 68.5317 151.14 68.6217 150.4C68.6217 150.39 68.6217 150.37 68.6217 150.36C68.6217 150.4 69.3717 151.18 69.4517 151.25C75.5817 156.41 82.7817 158.85 89.9717 158.78C97.2617 158.7 104.542 156.04 110.652 150.98C110.882 150.79 111.112 150.6 111.332 150.4C111.352 150.39 111.362 150.37 111.382 150.36C111.472 151.24 111.512 152.12 111.512 153L111.532 152.99Z" fill="#3485DF"/>
<path d="M130.852 111.03C130.852 112.72 129.482 114.1 127.782 114.1C126.082 114.1 124.712 112.73 124.712 111.03C124.712 109.33 126.082 107.96 127.782 107.96C129.482 107.96 130.852 109.33 130.852 111.03Z" fill="#24405E"/>
<path d="M55.1517 111.03C55.1517 112.72 53.7817 114.1 52.0817 114.1C50.3817 114.1 49.0117 112.73 49.0117 111.03C49.0117 109.33 50.3817 107.96 52.0817 107.96C53.7817 107.96 55.1517 109.33 55.1517 111.03Z" fill="#24405E"/>
<path d="M61.4918 93.88C61.6118 93.72 61.7918 93.57 62.0418 93.43H62.0618C62.1118 93.36 62.1618 93.32 62.2118 93.27C62.8218 92.77 64.0918 92.42 66.6618 92.24C66.7818 92.24 66.9218 92.23 67.0518 92.21C71.1118 91.86 76.0218 91.99 78.3718 92.46C78.4418 92.47 78.5018 92.48 78.5618 92.5C80.3218 92.71 81.6118 95.06 82.0318 96.21C82.3618 98.08 82.3018 100.37 82.0518 102.35V102.37C81.8618 103.84 81.5518 105.13 81.2118 105.94C80.7218 107.84 77.6318 111.63 69.2218 111.62C69.2018 111.62 69.1818 111.62 69.1718 111.61C66.8918 111.31 64.7618 110.42 63.2018 108.95C62.4518 108.24 61.8518 106.94 61.4018 105.38C61.4018 105.38 61.4018 105.36 61.4018 105.35C61.1018 104.56 60.8818 103.69 60.7718 102.75C60.7118 102.22 60.6518 101.53 60.6218 100.75C60.1918 97.67 61.0318 94.89 61.5018 93.89L61.4918 93.88Z" fill="white"/>
<path d="M99.1119 93.88C99.2319 93.72 99.4119 93.57 99.6619 93.43H99.6819C99.7319 93.36 99.7819 93.32 99.8319 93.27C100.442 92.77 101.712 92.42 104.282 92.24C104.402 92.24 104.542 92.23 104.672 92.21C108.732 91.86 113.642 91.99 115.992 92.46C116.062 92.47 116.122 92.48 116.182 92.5C117.942 92.71 119.232 95.06 119.652 96.21C119.982 98.08 119.922 100.37 119.672 102.35V102.37C119.482 103.84 119.172 105.13 118.832 105.94C118.342 107.84 115.252 111.63 106.842 111.62C106.822 111.62 106.802 111.62 106.792 111.61C104.512 111.31 102.382 110.42 100.822 108.95C100.072 108.24 99.4719 106.94 99.0219 105.38C99.0219 105.38 99.0219 105.36 99.0219 105.35C98.7219 104.56 98.5019 103.69 98.3919 102.75C98.3319 102.22 98.2719 101.53 98.2419 100.75C97.8119 97.67 98.6519 94.89 99.1219 93.89L99.1119 93.88Z" fill="white"/>
<path d="M89.8818 137.57C88.3418 137.57 86.7918 137.33 85.2918 136.86C80.1718 135.24 78.5118 133.97 77.7018 133.16C76.6718 132.12 76.6818 130.44 77.7218 129.42C78.7618 128.39 80.4418 128.4 81.4618 129.44C81.5618 129.54 82.5418 130.44 86.8818 131.82C88.8618 132.45 90.9518 132.44 92.9118 131.8C97.1118 130.44 98.0818 129.54 98.1818 129.44L98.3618 129.26C99.3918 128.22 101.072 128.21 102.102 129.24C103.132 130.27 103.152 131.95 102.122 132.98L101.942 133.16C101.142 133.96 99.5118 135.22 94.5418 136.83C93.0118 137.33 91.4418 137.57 89.8718 137.57H89.8818Z" fill="#24405E"/>
<path fill-rule="evenodd" clip-rule="evenodd" d="M817.185 83C820.307 83 822.837 86.2588 822.837 90.2787L822.837 149.721C822.837 153.741 820.307 157 817.185 157C814.064 157 811.533 153.741 811.533 149.721L811.533 90.2787C811.533 86.2588 814.064 83 817.185 83Z" fill="#24405E"/>
<path fill-rule="evenodd" clip-rule="evenodd" d="M843.562 83C846.684 83 849.214 86.2588 849.214 90.2787L849.214 149.721C849.214 153.741 846.684 157 843.562 157C840.441 157 837.91 153.741 837.91 149.721L837.91 90.2787C837.91 86.2588 840.441 83 843.562 83Z" fill="#24405E"/>
<path fill-rule="evenodd" clip-rule="evenodd" d="M869.939 83C873.06 83 875.591 86.2588 875.591 90.2787L875.591 149.721C875.591 153.741 873.06 157 869.939 157C866.817 157 864.286 153.741 864.286 149.721L864.286 90.2787C864.286 86.2588 866.817 83 869.939 83Z" fill="#24405E"/>
</svg>
